<svg xmlns="http://www.w3.org/2000/svg" width="284.921" height="391.001" viewBox="0 0 284.921 391.001">
  <g id="Group_308" data-name="Group 308" transform="translate(1.679 -79.52)">
    <g id="Group_297" data-name="Group 297" transform="translate(3.321 84.626)">
      <path id="level1" data-name="Path 208" d="M263.4,245.14,151.711,299.646a20.722,20.722,0,0,1-18.5,0L21.523,245.14c-22.032-10.752-22.032-50.309,0-61.061l111.684-54.506a20.727,20.727,0,0,1,18.5,0L263.4,184.079C285.428,194.831,285.428,234.388,263.4,245.14Z" transform="translate(-4.999 -127.394)" fill="none" stroke="#212529" stroke-miterlimit="10" stroke-width="10"/>
      <path id="level2" data-name="Path 209" d="M263.4,306.336,151.711,360.841a20.722,20.722,0,0,1-18.5,0L21.523,306.336c-22.032-10.752-22.032-50.309,0-61.061l111.684-54.506a20.727,20.727,0,0,1,18.5,0L263.4,245.275C285.428,256.027,285.428,295.584,263.4,306.336Z" transform="translate(-4.999 -137.001)" fill="none" stroke="#212529" stroke-miterlimit="10" stroke-width="10"/>
      <path id="level3" data-name="Path 210" d="M263.4,367.533,151.711,422.038a20.722,20.722,0,0,1-18.5,0L21.523,367.533c-22.032-10.752-22.032-50.309,0-61.061l111.684-54.506a20.728,20.728,0,0,1,18.5,0L263.4,306.472C285.428,317.224,285.428,356.781,263.4,367.533Z" transform="translate(-4.999 -146.609)" fill="none" stroke="#212529" stroke-miterlimit="10" stroke-width="10"/>
      <path id="level4" data-name="Path 211" d="M263.4,428.729,151.711,483.234a20.722,20.722,0,0,1-18.5,0L21.523,428.729c-22.032-10.752-22.032-50.309,0-61.061l111.684-54.506a20.728,20.728,0,0,1,18.5,0L263.4,367.668C285.428,378.42,285.428,417.977,263.4,428.729Z" transform="translate(-4.999 -156.216)" fill="none" stroke="#212529" stroke-miterlimit="10" stroke-width="10"/>
      <path id="level5" data-name="Path 212" d="M263.4,489.926,151.711,544.431a20.722,20.722,0,0,1-18.5,0L21.523,489.926c-22.032-10.752-22.032-50.309,0-61.061l111.684-54.506a20.727,20.727,0,0,1,18.5,0L263.4,428.865C285.428,439.617,285.428,479.174,263.4,489.926Z" transform="translate(-4.999 -165.824)" fill="none" stroke="#212529" stroke-miterlimit="10" stroke-width="10"/>
    </g>
  </g>
</svg>
